# Blender v2.81 (sub 16) OBJ File: 'Stamm.blend'
# www.blender.org
mtllib Stamm.mtl
o Cube
v 1.000000 1.000000 -1.000000
v 1.000000 -1.000000 -1.000000
v 1.000000 1.000000 1.000000
v 1.000000 -1.000000 1.000000
v -1.000000 1.000000 -1.000000
v -1.000000 -1.000000 -1.000000
v -1.000000 1.000000 1.000000
v -1.000000 -1.000000 1.000000
vt 0.875000 0.500000
vt 0.625000 0.750000
vt 0.625000 0.500000
vt 0.375000 1.000000
vt 0.375000 0.750000
vt 0.625000 0.000000
vt 0.375000 0.250000
vt 0.375000 0.000000
vt 0.375000 0.500000
vt 0.125000 0.750000
vt 0.125000 0.500000
vt 0.625000 0.250000
vt 0.875000 0.750000
vt 0.625000 1.000000
vn 0.0000 1.0000 0.0000
vn 0.0000 0.0000 1.0000
vn -1.0000 0.0000 0.0000
vn 0.0000 -1.0000 0.0000
vn 1.0000 0.0000 0.0000
vn 0.0000 0.0000 -1.0000
usemtl Material
s off
f 5/1/1 3/2/1 1/3/1
f 3/2/2 8/4/2 4/5/2
f 7/6/3 6/7/3 8/8/3
f 2/9/4 8/10/4 6/11/4
f 1/3/5 4/5/5 2/9/5
f 5/12/6 2/9/6 6/7/6
f 5/1/1 7/13/1 3/2/1
f 3/2/2 7/14/2 8/4/2
f 7/6/3 5/12/3 6/7/3
f 2/9/4 4/5/4 8/10/4
f 1/3/5 3/2/5 4/5/5
f 5/12/6 1/3/6 2/9/6
o Stamm_Tree_low
v 4.141912 -0.000000 1.803760
v 0.949460 0.000000 -2.590201
v -3.084248 18.189716 -2.590198
v -0.304155 16.620470 1.803763
v -4.216044 0.000000 -0.911824
v -7.582636 20.728807 -0.911820
v -4.216044 -0.000001 4.519415
v -7.582636 20.728807 4.519419
v 0.949460 -0.000001 6.197793
v -3.084248 18.189714 6.197795
v -2.224600 51.115021 1.803840
v -3.777737 49.978809 1.640607
v -6.290883 48.140476 1.702977
v -6.290883 48.140476 1.904630
v -3.777737 49.978809 1.967001
v -2.082109 27.695221 0.043272
v -0.968205 26.125975 1.803764
v -3.884444 30.234243 0.715735
v -3.884444 30.234243 2.891866
v -2.082109 27.695221 3.564329
v 0.741780 35.387417 0.043273
v 2.598003 35.895008 1.803837
v -2.261635 34.566048 0.715736
v -2.261635 34.566048 2.891867
v 0.741780 35.387417 3.564330
v -1.524307 43.459610 -0.344137
v 0.028902 44.595821 1.803767
v -4.037453 41.621277 0.476305
v -4.037453 41.621277 3.131300
v -1.524307 43.459610 3.951742
vt 0.024500 0.654500
vt 0.500000 1.000000
vt 0.500000 1.000000
vt 0.206100 0.095500
vt 0.024500 0.654500
vt 0.793900 0.095500
vt 0.206100 0.095500
vt 0.975500 0.654500
vt 0.793900 0.095500
vt 0.975500 0.654500
vt 0.024500 0.654500
vt 0.500000 1.000000
vt 0.206100 0.095500
vt 0.793900 0.095500
vt 0.975500 0.654500
vt 0.024500 0.654500
vt 0.500000 1.000000
vt 0.206100 0.095500
vt 0.793900 0.095500
vt 0.975500 0.654500
vt 0.950000 0.000000
vt 0.750000 1.000000
vt 0.750000 0.000000
vt 1.150000 0.000000
vt 0.950000 1.000000
vt 0.350000 0.000000
vt 0.150000 1.000000
vt 0.150000 0.000000
vt 0.550000 1.000000
vt 0.350000 1.000000
vt 0.550000 0.000000
vt 0.793900 0.095500
vt 0.206100 0.095500
vt 0.024500 0.654500
vt 1.150000 1.000000
vt 0.500000 1.000000
vt 0.975500 0.654500
vt 0.024500 0.654500
vt 0.500000 1.000000
vt 0.206100 0.095500
vt 0.793900 0.095500
vt 0.975500 0.654500
vn 0.8530 0.0596 -0.5184
vn -0.1923 0.2808 -0.9403
vn -0.9320 0.3626 0.0000
vn -0.0832 0.1995 0.9764
vn 0.8630 0.0483 0.5029
vn 0.7012 -0.2560 -0.6655
vn -0.2406 0.0883 -0.9666
vn -0.9364 0.3508 0.0000
vn -0.2363 0.0885 0.9676
vn 0.6974 -0.2560 0.6694
vn 0.7332 0.2165 -0.6447
vn -0.2335 -0.1119 -0.9659
vn -0.9698 -0.2441 0.0000
vn -0.1962 -0.0825 0.9771
vn 0.6586 0.1495 0.7375
vn 0.8630 0.0484 -0.5029
vn -0.0832 0.1995 -0.9764
vn -0.1923 0.2808 0.9403
vn 0.8530 0.0596 0.5184
vn 0.6974 -0.2560 -0.6694
vn -0.2363 0.0885 -0.9676
vn -0.2406 0.0883 0.9666
vn 0.7012 -0.2560 0.6655
vn 0.6586 0.1495 -0.7375
vn -0.1962 -0.0825 -0.9771
vn -0.2335 -0.1119 0.9659
vn 0.7332 0.2165 0.6447
vn 0.3651 0.0917 -0.9264
vn 0.9738 0.2267 0.0172
vn 0.9647 0.2631 0.0094
vn -0.7714 -0.1295 -0.6231
vn 0.0331 0.0208 -0.9992
vn -0.7741 -0.1397 0.6175
vn -0.9044 -0.1501 -0.3993
vn 0.0558 0.0290 0.9980
vn -0.9066 -0.1430 0.3970
vn 0.3785 0.1063 0.9195
vn -0.0000 -1.0000 -0.0000
vn 0.0836 0.0289 -0.9961
vn -0.1888 0.2257 -0.9557
vn -0.9451 -0.3267 0.0000
vn -0.3468 0.0563 0.9362
vn 0.6177 0.4166 0.6670
vn 0.6177 0.4166 -0.6670
vn -0.3468 0.0563 -0.9362
vn -0.1888 0.2257 0.9557
vn 0.0835 0.0289 0.9961
vn -0.5904 0.8071 0.0000
usemtl wire_224086086
s off
f 11/15/7 25/16/7 12/17/7
f 14/18/8 24/19/8 11/15/8
f 16/20/9 26/21/9 14/18/9
f 16/20/10 28/22/10 27/23/10
f 18/24/11 25/16/11 28/22/11
f 25/16/12 29/25/12 30/26/12
f 24/19/13 31/27/13 29/25/13
f 27/23/14 31/27/14 26/21/14
f 28/22/15 32/28/15 27/23/15
f 25/16/16 33/29/16 28/22/16
f 30/26/17 34/30/17 35/31/17
f 29/25/18 36/32/18 34/30/18
f 32/28/19 36/32/19 31/27/19
f 33/29/20 37/33/20 32/28/20
f 30/26/21 38/34/21 33/29/21
f 11/15/22 24/19/22 25/16/22
f 14/18/23 26/21/23 24/19/23
f 16/20/9 27/23/9 26/21/9
f 16/20/24 18/24/24 28/22/24
f 18/24/25 12/17/25 25/16/25
f 25/16/26 24/19/26 29/25/26
f 24/19/27 26/21/27 31/27/27
f 27/23/14 32/28/14 31/27/14
f 28/22/28 33/29/28 32/28/28
f 25/16/29 30/26/29 33/29/29
f 30/26/30 29/25/30 34/30/30
f 29/25/31 31/27/31 36/32/31
f 32/28/19 37/33/19 36/32/19
f 33/29/32 38/34/32 37/33/32
f 30/26/33 35/31/33 38/34/33
s 1
f 10/35/34 12/36/35 9/37/36
f 13/38/37 11/39/38 10/35/34
f 15/40/39 14/41/40 13/42/37
f 15/40/39 18/43/41 16/44/42
f 17/45/43 12/36/35 18/43/41
f 15/46/44 13/47/44 10/48/44
f 10/35/34 11/39/38 12/36/35
f 13/38/37 14/49/40 11/39/38
f 15/40/39 16/44/42 14/41/40
f 15/40/39 17/45/43 18/43/41
f 17/45/43 9/37/36 12/36/35
f 9/50/44 17/51/44 10/48/44
f 17/51/44 15/46/44 10/48/44
usemtl Material__49
s off
f 35/31/45 20/52/45 19/53/45
f 34/30/46 21/54/46 20/52/46
f 37/33/47 21/54/47 36/32/47
f 38/34/48 22/55/48 37/33/48
f 35/31/49 23/56/49 38/34/49
f 35/31/50 34/30/50 20/52/50
f 34/30/51 36/32/51 21/54/51
f 37/33/47 22/55/47 21/54/47
f 38/34/52 23/56/52 22/55/52
f 35/31/53 19/53/53 23/56/53
s 1
f 20/52/54 22/55/54 23/56/54
f 23/56/54 19/53/54 20/52/54
f 20/52/54 21/54/54 22/55/54
